<svg width="19" height="26" viewBox="0 0 19 26" fill="none" xmlns="http://www.w3.org/2000/svg">
<path d="M8.53652 24.9956C1.44189 14.7105 0.125 13.6549 0.125 9.875C0.125 4.69731 4.32231 0.5 9.5 0.5C14.6777 0.5 18.875 4.69731 18.875 9.875C18.875 13.6549 17.5581 14.7105 10.4635 24.9956C9.9979 25.6682 9.00205 25.6681 8.53652 24.9956ZM9.5 13.7812C11.6574 13.7812 13.4062 12.0324 13.4062 9.875C13.4062 7.71763 11.6574 5.96875 9.5 5.96875C7.34263 5.96875 5.59375 7.71763 5.59375 9.875C5.59375 12.0324 7.34263 13.7812 9.5 13.7812Z" fill="#003D2B"/>
</svg>
