<svg width="25" height="26" viewBox="0 0 25 26" fill="none" xmlns="http://www.w3.org/2000/svg">
<g clip-path="url(#clip0_126_5459)">
<path d="M24.2866 18.1661L18.8179 15.8223C18.5843 15.7227 18.3246 15.7018 18.078 15.7625C17.8315 15.8233 17.6113 15.9625 17.4507 16.1592L15.0288 19.1182C11.2279 17.3261 8.16904 14.2673 6.37695 10.4664L9.33594 8.04448C9.53305 7.88417 9.67256 7.664 9.73335 7.41731C9.79414 7.17062 9.7729 6.91083 9.67285 6.67729L7.3291 1.20854C7.21929 0.956788 7.02508 0.75124 6.77996 0.62734C6.53483 0.50344 6.25416 0.468955 5.98633 0.529831L0.908203 1.70171C0.649985 1.76133 0.419602 1.90672 0.254656 2.11415C0.0897096 2.32157 -5.94829e-05 2.57878 2.95713e-08 2.8438C2.95713e-08 15.3682 10.1514 25.5 22.6562 25.5C22.9213 25.5002 23.1787 25.4105 23.3862 25.2455C23.5937 25.0806 23.7392 24.8501 23.7988 24.5918L24.9707 19.5137C25.0312 19.2446 24.996 18.9628 24.8711 18.7168C24.7463 18.4708 24.5396 18.2761 24.2866 18.1661Z" fill="#003D2B"/>
</g>
<defs>
<clipPath id="clip0_126_5459">
<rect width="25" height="25" fill="white" transform="translate(0 0.5)"/>
</clipPath>
</defs>
</svg>
