<svg width="25" height="21" viewBox="0 0 25 21" fill="none" xmlns="http://www.w3.org/2000/svg">
<path d="M22.25 10.5H18.5V7.5C18.5 5.84531 19.8453 4.5 21.5 4.5H21.875C22.4984 4.5 23 3.99844 23 3.375V1.125C23 0.501562 22.4984 0 21.875 0H21.5C17.3563 0 14 3.35625 14 7.5V18.75C14 19.9922 15.0078 21 16.25 21H22.25C23.4922 21 24.5 19.9922 24.5 18.75V12.75C24.5 11.5078 23.4922 10.5 22.25 10.5ZM8.75 10.5H5V7.5C5 5.84531 6.34531 4.5 8 4.5H8.375C8.99844 4.5 9.5 3.99844 9.5 3.375V1.125C9.5 0.501562 8.99844 0 8.375 0H8C3.85625 0 0.5 3.35625 0.5 7.5V18.75C0.5 19.9922 1.50781 21 2.75 21H8.75C9.99219 21 11 19.9922 11 18.75V12.75C11 11.5078 9.99219 10.5 8.75 10.5Z" fill="#003D2B"/>
</svg>
