<svg width="25" height="21" viewBox="0 0 25 21" fill="none" xmlns="http://www.w3.org/2000/svg">
<path d="M22.25 0H16.25C15.0078 0 14 1.00781 14 2.25V8.25C14 9.49219 15.0078 10.5 16.25 10.5H20V13.5C20 15.1547 18.6547 16.5 17 16.5H16.625C16.0016 16.5 15.5 17.0016 15.5 17.625V19.875C15.5 20.4984 16.0016 21 16.625 21H17C21.1437 21 24.5 17.6437 24.5 13.5V2.25C24.5 1.00781 23.4922 0 22.25 0ZM8.75 0H2.75C1.50781 0 0.5 1.00781 0.5 2.25V8.25C0.5 9.49219 1.50781 10.5 2.75 10.5H6.5V13.5C6.5 15.1547 5.15469 16.5 3.5 16.5H3.125C2.50156 16.5 2 17.0016 2 17.625V19.875C2 20.4984 2.50156 21 3.125 21H3.5C7.64375 21 11 17.6437 11 13.5V2.25C11 1.00781 9.99219 0 8.75 0Z" fill="#003D2B"/>
</svg>
